<?xml version="1.0" encoding="utf-8"?>
<!-- Generator: Adobe Illustrator 14.0.0, SVG Export Plug-In . SVG Version: 6.00 Build 43363)  -->
<!DOCTYPE svg PUBLIC "-//W3C//DTD SVG 1.1//EN" "http://www.w3.org/Graphics/SVG/1.1/DTD/svg11.dtd">
<svg version="1.1" id="Layer_1" xmlns="http://www.w3.org/2000/svg" xmlns:xlink="http://www.w3.org/1999/xlink" x="0px" y="0px"
	 width="250px" height="250px" viewBox="0 0 250 250" enable-background="new 0 0 250 250" xml:space="preserve">
<path fill="#00FF00" d="M99.125,213.383c-17.229,0.001-33.904-3.035-46.537-9.352c-16.727-8.363-25.587-23.829-20.171-35.208
	c2.865-6.02,13.572-18.189,51.046-1.236c19.185,8.679,40.73,16.55,60.348,21.75c4.557-1.831,8.719-3.967,12.321-6.396
	c8.563-5.771,12.622-12.311,12.059-19.437c-1.23-15.607-9.482-17.185-34.688-18c-15.801-0.513-33.71-1.094-50.839-9.438
	c-16.448-8.014-27.147-21.987-29.354-38.338c-2.186-16.198,4.584-32.549,18.573-44.86c13.114-11.541,29.031-17.126,46.025-16.14
	c14.668,0.847,29.009,6.529,40.379,15.999c14.502,12.078,17.532,34.454,10.464,45.645c-3.867,6.119-11.923,10.85-22.937,5.766
	c-4.012-1.852-5.763-6.604-3.911-10.616c1.854-4.012,6.604-5.762,10.616-3.911c1.416,0.654,2.225,0.686,2.396,0.644
	c0.206-0.152,1.338-1.677,1.535-5.368c0.315-5.934-2.18-14.682-8.402-19.865c-16.273-13.551-43.739-19.376-65.596-0.142
	c-10.048,8.842-14.767,19.747-13.287,30.708c1.479,10.955,8.953,20.466,20.506,26.094c14.056,6.849,30.149,7.37,44.35,7.83
	c22.339,0.725,47.659,1.545,50.122,32.732c0.686,8.671-1.728,21.09-16.521,32.156c12.646,1.894,23.254,1.906,30.111-0.705
	c4.176-1.59,5.494-3.655,6.123-5.07c1.794-4.037,6.521-5.858,10.561-4.062c4.037,1.795,5.854,6.522,4.062,10.561
	c-2.767,6.226-7.83,10.775-15.05,13.524c-14.656,5.583-36.92,2.878-58.759-2.555C130.772,210.893,114.723,213.383,99.125,213.383
	L99.125,213.383z M46.855,175.744c-0.383,1.672,2.726,8.896,12.889,13.977c13.604,6.801,33.934,8.909,53.455,6.856
	c-18.388-6.426-32.778-12.807-36.33-14.412C56.3,172.858,48.096,174.674,46.855,175.744L46.855,175.744z"/>
</svg>
