<?xml version="1.0" encoding="utf-8"?>
<!-- Generator: Adobe Illustrator 14.0.0, SVG Export Plug-In . SVG Version: 6.00 Build 43363)  -->
<!DOCTYPE svg PUBLIC "-//W3C//DTD SVG 1.1//EN" "http://www.w3.org/Graphics/SVG/1.1/DTD/svg11.dtd">
<svg version="1.1" id="Layer_1" xmlns="http://www.w3.org/2000/svg" xmlns:xlink="http://www.w3.org/1999/xlink" x="0px" y="0px"
	 width="250px" height="250px" viewBox="0 0 250 250" enable-background="new 0 0 250 250" xml:space="preserve">
<g>
	<path fill="#00FF00" d="M181.727,120.098c-18.096,0-32.765-14.67-32.765-32.766c0-9.722,0-32.766,0-32.766s24.39,0,32.765,0
		c18.097,0,32.766,14.67,32.766,32.766S199.823,120.098,181.727,120.098z"/>
	<path fill="#00FF00" d="M107.61,66.9c11.449,0,20.764,9.315,20.764,20.767v20.765H107.61c-11.45,0-20.765-9.314-20.765-20.765
		S96.16,66.9,107.61,66.9 M107.61,54.9c-18.096,0-32.765,14.67-32.765,32.767c0,18.095,14.669,32.765,32.765,32.765
		c8.375,0,32.764,0,32.764,0s0-23.044,0-32.765C140.374,69.57,125.706,54.9,107.61,54.9L107.61,54.9z"/>
	<path fill="#00FF00" d="M68.273,129.902c18.096,0,32.765,14.67,32.765,32.766c0,9.721,0,32.766,0,32.766s-24.39,0-32.765,0
		c-18.096,0-32.765-14.67-32.765-32.766S50.177,129.902,68.273,129.902z"/>
	<path fill="#00FF00" d="M142.391,141.568c11.448,0,20.765,9.314,20.765,20.765S153.84,183.1,142.391,183.1
		c-11.451,0-20.766-9.315-20.766-20.767v-20.765H142.391 M142.391,129.568c-8.375,0-32.766,0-32.766,0s0,23.043,0,32.765
		c0,18.097,14.669,32.767,32.766,32.767c18.096,0,32.765-14.67,32.765-32.767C175.154,144.238,160.484,129.568,142.391,129.568
		L142.391,129.568z"/>
</g>
</svg>
