<?xml version="1.0" encoding="utf-8"?>
<!-- Generator: Adobe Illustrator 14.0.0, SVG Export Plug-In . SVG Version: 6.00 Build 43363)  -->
<!DOCTYPE svg PUBLIC "-//W3C//DTD SVG 1.1//EN" "http://www.w3.org/Graphics/SVG/1.1/DTD/svg11.dtd">
<svg version="1.1" id="Layer_1" xmlns="http://www.w3.org/2000/svg" xmlns:xlink="http://www.w3.org/1999/xlink" x="0px" y="0px"
	 width="250px" height="250px" viewBox="0 0 250 250" enable-background="new 0 0 250 250" xml:space="preserve">
<g>
	<circle fill="#00FF00" cx="125" cy="125" r="40"/>
	<path fill="#00FF00" d="M125,186.971c-15.877,0-31.754-6.044-43.84-18.13l9.191-9.192c19.105,19.104,50.191,19.104,69.297,0
		c19.104-19.104,19.104-50.19-0.002-69.296l9.193-9.191c24.172,24.173,24.172,63.507,0,87.68
		C156.754,180.927,140.877,186.971,125,186.971L125,186.971z"/>
	<path fill="#00FF00" d="M182.63,182.63l-9.192-9.192c26.709-26.709,26.709-70.166,0-96.874c-26.707-26.709-70.166-26.709-96.875,0
		L67.37,67.37c31.777-31.775,83.481-31.775,115.26,0C214.406,99.147,214.406,150.854,182.63,182.63L182.63,182.63z"/>
	<path fill="#00FF00" d="M125,226.5c-55.968,0-101.5-45.532-101.5-101.5S69.032,23.5,125,23.5S226.5,69.032,226.5,125
		S180.968,226.5,125,226.5L125,226.5z M125,36.5c-48.799,0-88.5,39.701-88.5,88.5s39.701,88.5,88.5,88.5s88.5-39.701,88.5-88.5
		S173.799,36.5,125,36.5L125,36.5z"/>
</g>
</svg>
