<?xml version="1.0" encoding="utf-8"?>
<!-- Generator: Adobe Illustrator 14.0.0, SVG Export Plug-In . SVG Version: 6.00 Build 43363)  -->
<!DOCTYPE svg PUBLIC "-//W3C//DTD SVG 1.1//EN" "http://www.w3.org/Graphics/SVG/1.1/DTD/svg11.dtd">
<svg version="1.1" id="Layer_1" xmlns="http://www.w3.org/2000/svg" xmlns:xlink="http://www.w3.org/1999/xlink" x="0px" y="0px"
	 width="250px" height="250px" viewBox="0 0 250 250" enable-background="new 0 0 250 250" xml:space="preserve">
<g>
	<path fill="#00FF00" d="M227.333,21.057c0,0-141.812,129.699-204.666,150.402c17.303,1.029,31.044,12.346,38.387,19.529
		c7.344,7.188,18.954,20.678,20.361,37.955C100.747,165.654,227.333,21.057,227.333,21.057z"/>
	<g>
		<path fill="#00FF00" d="M180.295,49.06c-13.131-9.099-29.059-14.445-46.243-14.445c-44.919,0-81.334,36.415-81.334,81.335
			c0,9.448,1.623,18.512,4.588,26.945C96.892,118.4,146.259,78.144,180.295,49.06z"/>
		<path fill="#00FF00" d="M109.376,193.427c7.785,2.484,16.067,3.854,24.676,3.854c44.919,0,81.334-36.413,81.334-81.333
			c0-17.592-5.601-33.868-15.095-47.173C172.02,103.357,133.001,153.396,109.376,193.427z"/>
	</g>
</g>
</svg>
